<?xml version="1.0" encoding="UTF-8" standalone="no"?>
<!-- Created with Inkscape (http://www.inkscape.org/) -->

<svg
   width="2000"
   height="1000"
   viewBox="0 0 529.16665 264.58333"
   version="1.1"
   id="svg1"
   xml:space="preserve"
   inkscape:export-filename="cave_front.png"
   inkscape:export-xdpi="96"
   inkscape:export-ydpi="96"
   inkscape:version="1.3 (0e150ed6c4, 2023-07-21)"
   sodipodi:docname="cave_front.svg"
   xmlns:inkscape="http://www.inkscape.org/namespaces/inkscape"
   xmlns:sodipodi="http://sodipodi.sourceforge.net/DTD/sodipodi-0.dtd"
   xmlns="http://www.w3.org/2000/svg"
   xmlns:svg="http://www.w3.org/2000/svg"><sodipodi:namedview
     id="namedview1"
     pagecolor="#ffffff"
     bordercolor="#000000"
     borderopacity="0.25"
     inkscape:showpageshadow="2"
     inkscape:pageopacity="0.0"
     inkscape:pagecheckerboard="false"
     inkscape:deskcolor="#d1d1d1"
     inkscape:document-units="px"
     inkscape:zoom="0.3139534"
     inkscape:cx="587.66683"
     inkscape:cy="473.00013"
     inkscape:window-width="1920"
     inkscape:window-height="1009"
     inkscape:window-x="-8"
     inkscape:window-y="-8"
     inkscape:window-maximized="1"
     inkscape:current-layer="layer2" /><defs
     id="defs1" /><g
     inkscape:groupmode="layer"
     id="layer2"
     inkscape:label="Camada 2"><g
       id="g5"
       transform="rotate(180,264.34167,132.29167)"><path
         id="path1-9"
         style="fill:#3a4d51;fill-opacity:1"
         d="m 74.098644,211.31923 c -4.699204,0.49488 -7.096389,2.05507 -8.090588,2.54464 -0.804739,-0.55523 -2.50048,0.0702 -2.954858,0.0682 -0.214436,0.22665 -1.390989,1.52808 -2.614828,2.89233 -5.136248,5.72558 -4.551455,1.88318 -4.838664,4.23703 -0.131278,1.07592 -0.352731,2.15144 -0.795817,3.86746 -0.197267,0.76399 -0.481806,1.93745 -0.63252,2.60759 -0.543717,2.41762 -1.168647,4.33278 -1.525488,4.67465 -0.16162,0.15489 -0.264028,0.19026 -0.606681,0.21136 -0.540463,0.0333 -0.787074,-0.12609 -1.106909,-0.71623 -0.273893,-0.50539 -0.847251,-1.10933 -1.259872,-1.32706 -0.232706,-0.12274 -0.39192,-0.15386 -0.757576,-0.14986 -0.430307,0.005 -0.606719,0.0624 -2.494938,0.80874 -1.117475,0.44169 -2.471814,0.96316 -3.009636,1.1591 -0.537818,0.19594 -1.513499,0.57138 -2.168343,0.83406 -0.654841,0.26268 -1.78594,0.68084 -2.513541,0.92914 -0.727604,0.24829 -1.749256,0.60241 -2.270146,0.78703 -0.802864,0.28456 -4.479148,1.32497 -5.623946,1.59164 -0.198738,0.0459 -0.576563,0.0692 -0.86248,0.0527 -0.909916,-0.0527 -1.436932,-0.44851 -2.740401,-2.05983 -1.144877,-1.41525 -1.886023,-2.0218 -3.394625,-2.77709 -1.070822,-0.53616 -1.472503,-0.65767 -2.074808,-0.62787 -0.658104,0.0325 -0.98087,0.1906 -2.215886,1.08314 -1.205696,0.87137 -2.529782,1.72387 -3.505729,2.25723 -1.611131,0.88049 -4.37202,2.29943 -5.581054,2.86856 l -1.2815758,0.60358 -0.4382162,-0.14056 c -0.5866332,-0.1879 -2.0449292,-0.27722 -2.6520344,-0.16278 -0.2374814,0.0448 -0.6552586,0.11626 -0.9281087,0.15916 -0.2728511,0.0428 -1.19559,0.30907 -2.0505208,0.5917 -0.8549323,0.28263 -1.9041748,0.59491 -2.33164058,0.69401 L 0,239.06137 v 12.76098 12.76098 h 132.29166 132.29167 v -12.73308 c 0,-7.702 -0.0242,-12.73307 -0.061,-12.73307 -0.236,0 -1.98372,0.66311 -2.70113,1.02475 -0.79242,0.39949 -0.88519,0.43144 -1.00614,0.34674 -0.0733,-0.0513 -0.64441,-0.56682 -1.26917,-1.14566 -2.48796,-2.30511 -2.72912,-2.47476 -5.14904,-3.61942 -1.02983,-0.48712 -1.45087,-0.76395 -4.06642,-2.67632 -2.59662,-1.89901 -3.07359,-2.12264 -4.0473,-1.90118 -0.51617,0.1174 -0.87618,0.30879 -1.67586,0.89142 -2.30542,1.67968 -3.25983,2.09491 -4.9842,2.16731 -1.04004,0.0437 -1.4124,-0.03 -1.96732,-0.38861 -0.58311,-0.37688 -1.08174,-0.90434 -1.63452,-1.73012 -0.50175,-0.74954 -0.6491,-1.13712 -0.81029,-2.13011 -0.11314,-0.69694 -0.30168,-1.41447 -0.66042,-2.51354 -0.56151,-1.72025 -0.74821,-2.70596 -0.85577,-4.52013 -0.0735,-1.24029 -0.20324,-1.97798 -0.55965,-3.17707 -0.31514,-1.0602 -1.00371,-3.7854 -1.08831,-4.30827 -0.0383,-0.23648 -0.13154,-0.96572 -0.20774,-1.62057 -0.0762,-0.65484 -0.24228,-1.68177 -0.36845,-2.28203 -0.21738,-1.03416 -0.24391,-1.11046 -0.5116,-1.45521 -0.35536,-0.45764 -0.99627,-0.97785 -1.30017,-1.05575 -0.1277,-0.0327 -0.49992,-0.1244 -0.82734,-0.2036 -0.87023,-0.21055 -1.46103,-0.51334 -1.96164,-1.00511 -0.71703,-0.70435 -2.34877,-1.15618 -2.95191,-1.18106 l -5.12741,-0.61154 -4.69303,0.59088 c -0.2799,0.20641 -0.50524,0.30868 -0.85214,0.38758 -0.57965,0.13184 -0.73881,0.21264 -1.23404,0.62477 -0.58488,0.48671 -0.75415,0.78839 -0.9927,1.77095 -0.21899,0.90204 -0.25518,1.11147 -0.87488,5.01519 -0.22901,1.44263 -0.53992,3.11077 -0.72916,3.91501 -0.43477,1.84772 -0.51406,2.41059 -0.59376,4.22093 -0.17189,3.90285 -0.18783,4.0225 -0.93586,6.97839 -0.56205,2.22092 -0.79764,2.84773 -1.48363,3.94911 -0.25551,0.41022 -0.38636,0.53869 -0.93896,0.92242 -0.35313,0.24522 -1.38524,0.98176 -2.29392,1.6366 -2.30441,1.66067 -6.00369,4.21624 -6.94893,4.80022 -1.11973,0.69178 -2.42136,1.35194 -3.04064,1.54254 -1.00457,0.30919 -1.65783,0.27936 -2.44378,-0.1111 -0.78933,-0.39214 -1.54489,-1.12044 -2.68304,-2.58641 -0.91308,-1.17605 -1.62409,-1.80717 -2.33525,-2.07326 -0.19831,-0.0742 -0.96698,-0.22632 -1.70791,-0.33796 -0.74093,-0.11165 -1.85324,-0.3088 -2.47168,-0.4377 -0.61846,-0.12889 -1.49207,-0.30834 -1.94149,-0.39894 -1.41642,-0.28539 -1.76828,-0.48343 -3.06338,-1.72599 -0.99408,-0.95377 -1.22376,-1.08993 -1.90737,-1.12913 -0.41973,-0.024 -0.56737,-9.8e-4 -0.95912,0.14727 -0.25466,0.0964 -0.62673,0.23683 -0.82682,0.31213 -0.22469,0.0846 -0.52821,0.13856 -0.79375,0.14056 -0.8312,0.007 -1.49655,-0.51602 -2.42466,-1.90531 -1.2002,-1.79658 -1.80927,-2.96046 -2.66547,-5.09323 -0.53013,-1.32054 -0.71395,-1.5848 -1.29294,-1.85932 -0.41283,-0.19566 -0.59476,-0.19776 -0.96429,-0.009 -0.16078,0.082 -1.08128,0.84863 -2.04535,1.70377 -0.96408,0.85513 -2.98814,2.61527 -4.49792,3.91139 -1.50975,1.29613 -3.2213,2.78019 -3.80338,3.29747 -2.02322,1.79796 -3.53356,2.90129 -5.56555,4.06539 -1.55739,0.89218 -2.25528,1.07189 -3.36414,0.86661 -1.17437,-0.2174 -1.94465,-0.51365 -2.64583,-1.01802 -0.1819,-0.13085 -0.9558,-0.85086 -1.71979,-1.59939 -0.76398,-0.74854 -1.58718,-1.5013 -1.82935,-1.67328 -0.6363,-0.4519 -1.42658,-0.79552 -2.37091,-1.03095 -1.65195,-0.41184 -2.48694,-0.9768 -4.97334,-3.3631 -1.19572,-1.14756 -1.48829,-1.39243 -2.46807,-2.06602 -1.18648,-0.81567 -1.27603,-0.89358 -2.77812,-2.41743 -1.54325,-1.56556 -2.06191,-1.96011 -3.16932,-2.4107 -0.89478,-0.36407 -1.4247,-0.48234 -2.1885,-0.48834 -0.75082,-0.006 -1.20749,0.11592 -2.10943,0.5612 -0.98929,0.4884 -1.56567,0.98803 -3.57911,3.10317 -0.70753,0.74326 -1.15382,1.01744 -1.65364,1.01544 -0.39349,-0.002 -0.62023,-0.11166 -1.07539,-0.52089 -0.63245,-0.56863 -1.14117,-1.54038 -1.74925,-3.34192 -0.63312,-1.87572 -1.67883,1.31722 -1.68083,-3.54043 -2.02015,-6.46783 -0.66969,-5.73904 -2.02015,-6.46783 -10.314874,-5.56645 -12.15212,-2.33509 -16.288008,-2.78308 z m -11.045446,2.61285 c 0.490572,-0.51851 -0.499598,-0.002 0,0 z"
         sodipodi:nodetypes="cccsssssssscsssssccsscsscccscsccccccsssssscsssssssssssssssscccssssscssssssssssscscsscssccssssssssssssscsscsscscccc" /><path
         id="path5"
         style="fill:#3a4d51;fill-opacity:1"
         d="m 338.19864,211.31923 c -4.6992,0.49488 -7.09639,2.05507 -8.09059,2.54464 -0.80474,-0.55523 -2.50048,0.0702 -2.95486,0.0682 -0.21443,0.22665 -1.39099,1.52808 -2.61482,2.89233 -5.13625,5.72558 -4.55146,1.88318 -4.83867,4.23703 -0.13128,1.07592 -0.35273,2.15144 -0.79582,3.86746 -0.19726,0.76399 -0.4818,1.93745 -0.63252,2.60759 -0.54371,2.41762 -1.16864,4.33278 -1.52548,4.67465 -0.16162,0.15489 -0.26403,0.19026 -0.60668,0.21136 -0.54047,0.0333 -0.78708,-0.12609 -1.10691,-0.71623 -0.2739,-0.50539 -0.84725,-1.10933 -1.25988,-1.32706 -0.2327,-0.12274 -0.39192,-0.15386 -0.75757,-0.14986 -0.43031,0.005 -0.60672,0.0624 -2.49494,0.80874 -1.11748,0.44169 -2.47181,0.96316 -3.00964,1.1591 -0.53781,0.19594 -1.51349,0.57138 -2.16834,0.83406 -0.65484,0.26268 -1.78594,0.68084 -2.51354,0.92914 -0.7276,0.24829 -1.74926,0.60241 -2.27015,0.78703 -0.80286,0.28456 -4.47914,1.32497 -5.62394,1.59164 -0.19874,0.0459 -0.57656,0.0692 -0.86248,0.0527 -0.90992,-0.0527 -1.43693,-0.44851 -2.7404,-2.05983 -1.14488,-1.41525 -1.88603,-2.0218 -3.39463,-2.77709 -1.07082,-0.53616 -1.4725,-0.65767 -2.07481,-0.62787 -0.6581,0.0325 -0.98087,0.1906 -2.21588,1.08314 -1.2057,0.87137 -2.52978,1.72387 -3.50573,2.25723 -1.61113,0.88049 -4.37202,2.29943 -5.58106,2.86856 l -1.28157,0.60358 -0.43822,-0.14056 c -0.58663,-0.1879 -2.04493,-0.27722 -2.65203,-0.16278 -0.23748,0.0448 -0.65526,0.11626 -0.92811,0.15916 -0.27285,0.0428 -1.19559,0.30907 -2.05052,0.5917 -0.85493,0.28263 -1.90418,0.59491 -2.33164,0.69401 l -0.84574,0.36858 0.0227,12.60067 v 12.73308 h 132.3375 132.29167 v -12.73308 c 0,-7.702 -0.0242,-12.73307 -0.061,-12.73307 -0.236,0 -1.98372,0.66311 -2.70113,1.02475 -0.79242,0.39949 -0.88519,0.43144 -1.00614,0.34674 -0.0733,-0.0513 -0.64441,-0.56682 -1.26917,-1.14566 -2.48796,-2.30511 -2.72912,-2.47476 -5.14904,-3.61942 -1.02983,-0.48712 -1.45087,-0.76395 -4.06642,-2.67632 -2.59662,-1.89901 -3.07359,-2.12264 -4.0473,-1.90118 -0.51617,0.1174 -0.87618,0.30879 -1.67586,0.89142 -2.30542,1.67968 -3.25983,2.09491 -4.9842,2.16731 -1.04004,0.0437 -1.4124,-0.03 -1.96732,-0.38861 -0.58311,-0.37688 -1.08174,-0.90434 -1.63452,-1.73012 -0.50175,-0.74954 -0.6491,-1.13712 -0.81029,-2.13011 -0.11314,-0.69694 -0.30168,-1.41447 -0.66042,-2.51354 -0.56151,-1.72025 -0.74821,-2.70596 -0.85577,-4.52013 -0.0735,-1.24029 -0.20324,-1.97798 -0.55965,-3.17707 -0.31514,-1.0602 -1.00371,-3.7854 -1.08831,-4.30827 -0.0383,-0.23648 -0.13154,-0.96572 -0.20774,-1.62057 -0.0762,-0.65484 -0.24228,-1.68177 -0.36845,-2.28203 -0.21738,-1.03416 -0.24391,-1.11046 -0.5116,-1.45521 -0.35536,-0.45764 -0.99627,-0.97785 -1.30017,-1.05575 -0.1277,-0.0327 -0.49992,-0.1244 -0.82734,-0.2036 -0.87023,-0.21055 -1.46103,-0.51334 -1.96164,-1.00511 -0.71703,-0.70435 -2.34877,-1.15618 -2.95191,-1.18106 l -5.12741,-0.61154 -4.69303,0.59088 c -0.2799,0.20641 -0.50524,0.30868 -0.85214,0.38758 -0.57965,0.13184 -0.73881,0.21264 -1.23404,0.62477 -0.58488,0.48671 -0.75415,0.78839 -0.9927,1.77095 -0.21899,0.90204 -0.25518,1.11147 -0.87488,5.01519 -0.22901,1.44263 -0.53992,3.11077 -0.72916,3.91501 -0.43477,1.84772 -0.51406,2.41059 -0.59376,4.22093 -0.17189,3.90285 -0.18783,4.0225 -0.93586,6.97839 -0.56205,2.22092 -0.79764,2.84773 -1.48363,3.94911 -0.25551,0.41022 -0.38636,0.53869 -0.93896,0.92242 -0.35313,0.24522 -1.38524,0.98176 -2.29392,1.6366 -2.30441,1.66067 -6.00369,4.21624 -6.94893,4.80022 -1.11973,0.69178 -2.42136,1.35194 -3.04064,1.54254 -1.00457,0.30919 -1.65783,0.27936 -2.44378,-0.1111 -0.78933,-0.39214 -1.54489,-1.12044 -2.68304,-2.58641 -0.91308,-1.17605 -1.62409,-1.80717 -2.33525,-2.07326 -0.19831,-0.0742 -0.96698,-0.22632 -1.70791,-0.33796 -0.74093,-0.11165 -1.85324,-0.3088 -2.47168,-0.4377 -0.61846,-0.12889 -1.49207,-0.30834 -1.94149,-0.39894 -1.41642,-0.28539 -1.76828,-0.48343 -3.06338,-1.72599 -0.99408,-0.95377 -1.22376,-1.08993 -1.90737,-1.12913 -0.41973,-0.024 -0.56737,-9.8e-4 -0.95912,0.14727 -0.25466,0.0964 -0.62673,0.23683 -0.82682,0.31213 -0.22469,0.0846 -0.52821,0.13856 -0.79375,0.14056 -0.8312,0.007 -1.49655,-0.51602 -2.42466,-1.90531 -1.2002,-1.79658 -1.80927,-2.96046 -2.66547,-5.09323 -0.53013,-1.32054 -0.71395,-1.5848 -1.29294,-1.85932 -0.41283,-0.19566 -0.59476,-0.19776 -0.96429,-0.009 -0.16078,0.082 -1.08128,0.84863 -2.04535,1.70377 -0.96408,0.85513 -2.98814,2.61527 -4.49792,3.91139 -1.50975,1.29613 -3.2213,2.78019 -3.80338,3.29747 -2.02322,1.79796 -3.53356,2.90129 -5.56555,4.06539 -1.55739,0.89218 -2.25528,1.07189 -3.36414,0.86661 -1.17437,-0.2174 -1.94465,-0.51365 -2.64583,-1.01802 -0.1819,-0.13085 -0.9558,-0.85086 -1.71979,-1.59939 -0.76398,-0.74854 -1.58718,-1.5013 -1.82935,-1.67328 -0.6363,-0.4519 -1.42658,-0.79552 -2.37091,-1.03095 -1.65195,-0.41184 -2.48694,-0.9768 -4.97334,-3.3631 -1.19572,-1.14756 -1.48829,-1.39243 -2.46807,-2.06602 -1.18648,-0.81567 -1.27603,-0.89358 -2.77812,-2.41743 -1.54325,-1.56556 -2.06191,-1.96011 -3.16932,-2.4107 -0.89478,-0.36407 -1.4247,-0.48234 -2.1885,-0.48834 -0.75082,-0.006 -1.20749,0.11592 -2.10943,0.5612 -0.98929,0.4884 -1.56567,0.98803 -3.57911,3.10317 -0.70753,0.74326 -1.15382,1.01744 -1.65364,1.01544 -0.39349,-0.002 -0.62023,-0.11166 -1.07539,-0.52089 -0.63245,-0.56863 -1.14117,-1.54038 -1.74925,-3.34192 -0.63312,-1.87572 -1.67883,1.31722 -1.68083,-3.54043 -2.02015,-6.46783 -0.66969,-5.73904 -2.02015,-6.46783 -10.31488,-5.56645 -12.15212,-2.33509 -16.28801,-2.78308 z m -11.04545,2.61285 c 0.49058,-0.51851 -0.49959,-0.002 0,0 z"
         sodipodi:nodetypes="cccsssssssscsssssccsscsscccscsccccccsssssscsssssssssssssssscccssssscssssssssssscscsscssccssssssssssssscsscsscscccc" /></g><path
       id="path6"
       style="fill:#3a4d51;fill-opacity:1"
       d="m 74.098644,211.31923 c -4.699204,0.49488 -7.096389,2.05507 -8.090588,2.54464 -0.804739,-0.55523 -2.50048,0.0702 -2.954858,0.0682 -0.214436,0.22665 -1.390989,1.52808 -2.614828,2.89233 -5.136248,5.72558 -4.551455,1.88318 -4.838664,4.23703 -0.131278,1.07592 -0.352731,2.15144 -0.795817,3.86746 -0.197267,0.76399 -0.481806,1.93745 -0.63252,2.60759 -0.543717,2.41762 -1.168647,4.33278 -1.525488,4.67465 -0.16162,0.15489 -0.264028,0.19026 -0.606681,0.21136 -0.540463,0.0333 -0.787074,-0.12609 -1.106909,-0.71623 -0.273893,-0.50539 -0.847251,-1.10933 -1.259872,-1.32706 -0.232706,-0.12274 -0.39192,-0.15386 -0.757576,-0.14986 -0.430307,0.005 -0.606719,0.0624 -2.494938,0.80874 -1.117475,0.44169 -2.471814,0.96316 -3.009636,1.1591 -0.537818,0.19594 -1.513499,0.57138 -2.168343,0.83406 -0.654841,0.26268 -1.78594,0.68084 -2.513541,0.92914 -0.727604,0.24829 -1.749256,0.60241 -2.270146,0.78703 -0.802864,0.28456 -4.479148,1.32497 -5.623946,1.59164 -0.198738,0.0459 -0.576563,0.0692 -0.86248,0.0527 -0.909916,-0.0527 -1.436932,-0.44851 -2.740401,-2.05983 -1.144877,-1.41525 -1.886023,-2.0218 -3.394625,-2.77709 -1.070822,-0.53616 -1.472503,-0.65767 -2.074808,-0.62787 -0.658104,0.0325 -0.98087,0.1906 -2.215886,1.08314 -1.205696,0.87137 -2.529782,1.72387 -3.505729,2.25723 -1.611131,0.88049 -4.37202,2.29943 -5.581054,2.86856 l -1.2815758,0.60358 -0.4382162,-0.14056 c -0.5866332,-0.1879 -2.0449292,-0.27722 -2.6520344,-0.16278 -0.2374814,0.0448 -0.6552586,0.11626 -0.9281087,0.15916 -0.2728511,0.0428 -1.19559,0.30907 -2.0505208,0.5917 -0.8549323,0.28263 -1.9041748,0.59491 -2.33164058,0.69401 L 0,239.06137 v 12.76098 12.76098 h 132.29166 132.29167 v -12.73308 c 0,-7.702 -0.0242,-12.73307 -0.061,-12.73307 -0.236,0 -1.98372,0.66311 -2.70113,1.02475 -0.79242,0.39949 -0.88519,0.43144 -1.00614,0.34674 -0.0733,-0.0513 -0.64441,-0.56682 -1.26917,-1.14566 -2.48796,-2.30511 -2.72912,-2.47476 -5.14904,-3.61942 -1.02983,-0.48712 -1.45087,-0.76395 -4.06642,-2.67632 -2.59662,-1.89901 -3.07359,-2.12264 -4.0473,-1.90118 -0.51617,0.1174 -0.87618,0.30879 -1.67586,0.89142 -2.30542,1.67968 -3.25983,2.09491 -4.9842,2.16731 -1.04004,0.0437 -1.4124,-0.03 -1.96732,-0.38861 -0.58311,-0.37688 -1.08174,-0.90434 -1.63452,-1.73012 -0.50175,-0.74954 -0.6491,-1.13712 -0.81029,-2.13011 -0.11314,-0.69694 -0.30168,-1.41447 -0.66042,-2.51354 -0.56151,-1.72025 -0.74821,-2.70596 -0.85577,-4.52013 -0.0735,-1.24029 -0.20324,-1.97798 -0.55965,-3.17707 -0.31514,-1.0602 -1.00371,-3.7854 -1.08831,-4.30827 -0.0383,-0.23648 -0.13154,-0.96572 -0.20774,-1.62057 -0.0762,-0.65484 -0.24228,-1.68177 -0.36845,-2.28203 -0.21738,-1.03416 -0.24391,-1.11046 -0.5116,-1.45521 -0.35536,-0.45764 -0.99627,-0.97785 -1.30017,-1.05575 -0.1277,-0.0327 -0.49992,-0.1244 -0.82734,-0.2036 -0.87023,-0.21055 -1.46103,-0.51334 -1.96164,-1.00511 -0.71703,-0.70435 -2.34877,-1.15618 -2.95191,-1.18106 l -5.12741,-0.61154 -4.69303,0.59088 c -0.2799,0.20641 -0.50524,0.30868 -0.85214,0.38758 -0.57965,0.13184 -0.73881,0.21264 -1.23404,0.62477 -0.58488,0.48671 -0.75415,0.78839 -0.9927,1.77095 -0.21899,0.90204 -0.25518,1.11147 -0.87488,5.01519 -0.22901,1.44263 -0.53992,3.11077 -0.72916,3.91501 -0.43477,1.84772 -0.51406,2.41059 -0.59376,4.22093 -0.17189,3.90285 -0.18783,4.0225 -0.93586,6.97839 -0.56205,2.22092 -0.79764,2.84773 -1.48363,3.94911 -0.25551,0.41022 -0.38636,0.53869 -0.93896,0.92242 -0.35313,0.24522 -1.38524,0.98176 -2.29392,1.6366 -2.30441,1.66067 -6.00369,4.21624 -6.94893,4.80022 -1.11973,0.69178 -2.42136,1.35194 -3.04064,1.54254 -1.00457,0.30919 -1.65783,0.27936 -2.44378,-0.1111 -0.78933,-0.39214 -1.54489,-1.12044 -2.68304,-2.58641 -0.91308,-1.17605 -1.62409,-1.80717 -2.33525,-2.07326 -0.19831,-0.0742 -0.96698,-0.22632 -1.70791,-0.33796 -0.74093,-0.11165 -1.85324,-0.3088 -2.47168,-0.4377 -0.61846,-0.12889 -1.49207,-0.30834 -1.94149,-0.39894 -1.41642,-0.28539 -1.76828,-0.48343 -3.06338,-1.72599 -0.99408,-0.95377 -1.22376,-1.08993 -1.90737,-1.12913 -0.41973,-0.024 -0.56737,-9.8e-4 -0.95912,0.14727 -0.25466,0.0964 -0.62673,0.23683 -0.82682,0.31213 -0.22469,0.0846 -0.52821,0.13856 -0.79375,0.14056 -0.8312,0.007 -1.49655,-0.51602 -2.42466,-1.90531 -1.2002,-1.79658 -1.80927,-2.96046 -2.66547,-5.09323 -0.53013,-1.32054 -0.71395,-1.5848 -1.29294,-1.85932 -0.41283,-0.19566 -0.59476,-0.19776 -0.96429,-0.009 -0.16078,0.082 -1.08128,0.84863 -2.04535,1.70377 -0.96408,0.85513 -2.98814,2.61527 -4.49792,3.91139 -1.50975,1.29613 -3.2213,2.78019 -3.80338,3.29747 -2.02322,1.79796 -3.53356,2.90129 -5.56555,4.06539 -1.55739,0.89218 -2.25528,1.07189 -3.36414,0.86661 -1.17437,-0.2174 -1.94465,-0.51365 -2.64583,-1.01802 -0.1819,-0.13085 -0.9558,-0.85086 -1.71979,-1.59939 -0.76398,-0.74854 -1.58718,-1.5013 -1.82935,-1.67328 -0.6363,-0.4519 -1.42658,-0.79552 -2.37091,-1.03095 -1.65195,-0.41184 -2.48694,-0.9768 -4.97334,-3.3631 -1.19572,-1.14756 -1.48829,-1.39243 -2.46807,-2.06602 -1.18648,-0.81567 -1.27603,-0.89358 -2.77812,-2.41743 -1.54325,-1.56556 -2.06191,-1.96011 -3.16932,-2.4107 -0.89478,-0.36407 -1.4247,-0.48234 -2.1885,-0.48834 -0.75082,-0.006 -1.20749,0.11592 -2.10943,0.5612 -0.98929,0.4884 -1.56567,0.98803 -3.57911,3.10317 -0.70753,0.74326 -1.15382,1.01744 -1.65364,1.01544 -0.39349,-0.002 -0.62023,-0.11166 -1.07539,-0.52089 -0.63245,-0.56863 -1.14117,-1.54038 -1.74925,-3.34192 -0.63312,-1.87572 -1.67883,1.31722 -1.68083,-3.54043 -2.02015,-6.46783 -0.66969,-5.73904 -2.02015,-6.46783 -10.314874,-5.56645 -12.15212,-2.33509 -16.288008,-2.78308 z m -11.045446,2.61285 c 0.490572,-0.51851 -0.499598,-0.002 0,0 z"
       sodipodi:nodetypes="cccsssssssscsssssccsscsscccscsccccccsssssscsssssssssssssssscccssssscssssssssssscscsscssccssssssssssssscsscsscscccc" /><path
       id="path7"
       style="fill:#3a4d51;fill-opacity:1"
       d="m 338.19864,211.31923 c -4.6992,0.49488 -7.09639,2.05507 -8.09059,2.54464 -0.80474,-0.55523 -2.50048,0.0702 -2.95486,0.0682 -0.21443,0.22665 -1.39099,1.52808 -2.61482,2.89233 -5.13625,5.72558 -4.55146,1.88318 -4.83867,4.23703 -0.13128,1.07592 -0.35273,2.15144 -0.79582,3.86746 -0.19726,0.76399 -0.4818,1.93745 -0.63252,2.60759 -0.54371,2.41762 -1.16864,4.33278 -1.52548,4.67465 -0.16162,0.15489 -0.26403,0.19026 -0.60668,0.21136 -0.54047,0.0333 -0.78708,-0.12609 -1.10691,-0.71623 -0.2739,-0.50539 -0.84725,-1.10933 -1.25988,-1.32706 -0.2327,-0.12274 -0.39192,-0.15386 -0.75757,-0.14986 -0.43031,0.005 -0.60672,0.0624 -2.49494,0.80874 -1.11748,0.44169 -2.47181,0.96316 -3.00964,1.1591 -0.53781,0.19594 -1.51349,0.57138 -2.16834,0.83406 -0.65484,0.26268 -1.78594,0.68084 -2.51354,0.92914 -0.7276,0.24829 -1.74926,0.60241 -2.27015,0.78703 -0.80286,0.28456 -4.47914,1.32497 -5.62394,1.59164 -0.19874,0.0459 -0.57656,0.0692 -0.86248,0.0527 -0.90992,-0.0527 -1.43693,-0.44851 -2.7404,-2.05983 -1.14488,-1.41525 -1.88603,-2.0218 -3.39463,-2.77709 -1.07082,-0.53616 -1.4725,-0.65767 -2.07481,-0.62787 -0.6581,0.0325 -0.98087,0.1906 -2.21588,1.08314 -1.2057,0.87137 -2.52978,1.72387 -3.50573,2.25723 -1.61113,0.88049 -4.37202,2.29943 -5.58106,2.86856 l -1.28157,0.60358 -0.43822,-0.14056 c -0.58663,-0.1879 -2.04493,-0.27722 -2.65203,-0.16278 -0.23748,0.0448 -0.65526,0.11626 -0.92811,0.15916 -0.27285,0.0428 -1.19559,0.30907 -2.05052,0.5917 -0.85493,0.28263 -1.90418,0.59491 -2.33164,0.69401 l -0.84574,0.36858 0.0227,12.60067 v 12.73308 h 132.3375 132.29167 v -12.73308 c 0,-7.702 -0.0242,-12.73307 -0.061,-12.73307 -0.236,0 -1.98372,0.66311 -2.70113,1.02475 -0.79242,0.39949 -0.88519,0.43144 -1.00614,0.34674 -0.0733,-0.0513 -0.64441,-0.56682 -1.26917,-1.14566 -2.48796,-2.30511 -2.72912,-2.47476 -5.14904,-3.61942 -1.02983,-0.48712 -1.45087,-0.76395 -4.06642,-2.67632 -2.59662,-1.89901 -3.07359,-2.12264 -4.0473,-1.90118 -0.51617,0.1174 -0.87618,0.30879 -1.67586,0.89142 -2.30542,1.67968 -3.25983,2.09491 -4.9842,2.16731 -1.04004,0.0437 -1.4124,-0.03 -1.96732,-0.38861 -0.58311,-0.37688 -1.08174,-0.90434 -1.63452,-1.73012 -0.50175,-0.74954 -0.6491,-1.13712 -0.81029,-2.13011 -0.11314,-0.69694 -0.30168,-1.41447 -0.66042,-2.51354 -0.56151,-1.72025 -0.74821,-2.70596 -0.85577,-4.52013 -0.0735,-1.24029 -0.20324,-1.97798 -0.55965,-3.17707 -0.31514,-1.0602 -1.00371,-3.7854 -1.08831,-4.30827 -0.0383,-0.23648 -0.13154,-0.96572 -0.20774,-1.62057 -0.0762,-0.65484 -0.24228,-1.68177 -0.36845,-2.28203 -0.21738,-1.03416 -0.24391,-1.11046 -0.5116,-1.45521 -0.35536,-0.45764 -0.99627,-0.97785 -1.30017,-1.05575 -0.1277,-0.0327 -0.49992,-0.1244 -0.82734,-0.2036 -0.87023,-0.21055 -1.46103,-0.51334 -1.96164,-1.00511 -0.71703,-0.70435 -2.34877,-1.15618 -2.95191,-1.18106 l -5.12741,-0.61154 -4.69303,0.59088 c -0.2799,0.20641 -0.50524,0.30868 -0.85214,0.38758 -0.57965,0.13184 -0.73881,0.21264 -1.23404,0.62477 -0.58488,0.48671 -0.75415,0.78839 -0.9927,1.77095 -0.21899,0.90204 -0.25518,1.11147 -0.87488,5.01519 -0.22901,1.44263 -0.53992,3.11077 -0.72916,3.91501 -0.43477,1.84772 -0.51406,2.41059 -0.59376,4.22093 -0.17189,3.90285 -0.18783,4.0225 -0.93586,6.97839 -0.56205,2.22092 -0.79764,2.84773 -1.48363,3.94911 -0.25551,0.41022 -0.38636,0.53869 -0.93896,0.92242 -0.35313,0.24522 -1.38524,0.98176 -2.29392,1.6366 -2.30441,1.66067 -6.00369,4.21624 -6.94893,4.80022 -1.11973,0.69178 -2.42136,1.35194 -3.04064,1.54254 -1.00457,0.30919 -1.65783,0.27936 -2.44378,-0.1111 -0.78933,-0.39214 -1.54489,-1.12044 -2.68304,-2.58641 -0.91308,-1.17605 -1.62409,-1.80717 -2.33525,-2.07326 -0.19831,-0.0742 -0.96698,-0.22632 -1.70791,-0.33796 -0.74093,-0.11165 -1.85324,-0.3088 -2.47168,-0.4377 -0.61846,-0.12889 -1.49207,-0.30834 -1.94149,-0.39894 -1.41642,-0.28539 -1.76828,-0.48343 -3.06338,-1.72599 -0.99408,-0.95377 -1.22376,-1.08993 -1.90737,-1.12913 -0.41973,-0.024 -0.56737,-9.8e-4 -0.95912,0.14727 -0.25466,0.0964 -0.62673,0.23683 -0.82682,0.31213 -0.22469,0.0846 -0.52821,0.13856 -0.79375,0.14056 -0.8312,0.007 -1.49655,-0.51602 -2.42466,-1.90531 -1.2002,-1.79658 -1.80927,-2.96046 -2.66547,-5.09323 -0.53013,-1.32054 -0.71395,-1.5848 -1.29294,-1.85932 -0.41283,-0.19566 -0.59476,-0.19776 -0.96429,-0.009 -0.16078,0.082 -1.08128,0.84863 -2.04535,1.70377 -0.96408,0.85513 -2.98814,2.61527 -4.49792,3.91139 -1.50975,1.29613 -3.2213,2.78019 -3.80338,3.29747 -2.02322,1.79796 -3.53356,2.90129 -5.56555,4.06539 -1.55739,0.89218 -2.25528,1.07189 -3.36414,0.86661 -1.17437,-0.2174 -1.94465,-0.51365 -2.64583,-1.01802 -0.1819,-0.13085 -0.9558,-0.85086 -1.71979,-1.59939 -0.76398,-0.74854 -1.58718,-1.5013 -1.82935,-1.67328 -0.6363,-0.4519 -1.42658,-0.79552 -2.37091,-1.03095 -1.65195,-0.41184 -2.48694,-0.9768 -4.97334,-3.3631 -1.19572,-1.14756 -1.48829,-1.39243 -2.46807,-2.06602 -1.18648,-0.81567 -1.27603,-0.89358 -2.77812,-2.41743 -1.54325,-1.56556 -2.06191,-1.96011 -3.16932,-2.4107 -0.89478,-0.36407 -1.4247,-0.48234 -2.1885,-0.48834 -0.75082,-0.006 -1.20749,0.11592 -2.10943,0.5612 -0.98929,0.4884 -1.56567,0.98803 -3.57911,3.10317 -0.70753,0.74326 -1.15382,1.01744 -1.65364,1.01544 -0.39349,-0.002 -0.62023,-0.11166 -1.07539,-0.52089 -0.63245,-0.56863 -1.14117,-1.54038 -1.74925,-3.34192 -0.63312,-1.87572 -1.67883,1.31722 -1.68083,-3.54043 -2.02015,-6.46783 -0.66969,-5.73904 -2.02015,-6.46783 -10.31488,-5.56645 -12.15212,-2.33509 -16.28801,-2.78308 z m -11.04545,2.61285 c 0.49058,-0.51851 -0.49959,-0.002 0,0 z"
       sodipodi:nodetypes="cccsssssssscsssssccsscsscccscsccccccsssssscsssssssssssssssscccssssscssssssssssscscsscssccssssssssssssscsscsscscccc" /></g></svg>
